# xmcd
#
# Track frame offsets:
#	150
#	16347
#	27417
#	43822
#	59762
#	79485
#	99447
#	122237
#	137525
#	149487
#	167222
#	184392
#	202547
#	214555
#	227655
#	238537
#	259037
#
# Disc length: 3678 seconds
#
# Revision: 0
# Processed by: cddbd v1.5.1PL2 Copyright (c) Steve Scherf et al.
# Submitted via: FairStars CD Ripper 1.01
#
DISCID=f30e5c11
DTITLE=Horseshoe - movin' the goods
DYEAR=2000
DGENRE=Dance
TTITLE0=First Car
TTITLE1=Last Concert Cafe
TTITLE2=Sanctuary
TTITLE3=Millennium (live)
TTITLE4=Better Days
TTITLE5=Texas Trash
TTITLE6=Moving The Goods
TTITLE7='Til The Next One Comes Along
TTITLE8=3 Bad Apples
TTITLE9=Purgatory
TTITLE10=Wildflower Child
TTITLE11=Blue Shimmer
TTITLE12=Anthem
TTITLE13=How Many Of These Places (live)
TTITLE14=Bad Example (live)
TTITLE15=Semi-Truck (live)
TTITLE16=Breakfast At 3:00 AM
EXTD=
EXTT0=
EXTT1=
EXTT2=
EXTT3=
EXTT4=
EXTT5=
EXTT6=
EXTT7=
EXTT8=
EXTT9=
EXTT10=
EXTT11=
EXTT12=
EXTT13=
EXTT14=
EXTT15=
EXTT16=
PLAYORDER=
